<?xml version='1.0' encoding='UTF-8'?>
<svg width="146.4mm" height="146.4mm" version="1.1" viewBox="0 0 146.4 146.4" xmlns="http://www.w3.org/2000/svg"><path d="M9.6,9.6H12V12H9.6zM12,9.6H14.4V12H12zM14.4,9.6H16.8V12H14.4zM16.8,9.6H19.2V12H16.8zM19.2,9.6H21.6V12H19.2zM21.6,9.6H24V12H21.6zM24,9.6H26.4V12H24zM28.8,9.6H31.2V12H28.8zM31.2,9.6H33.6V12H31.2zM33.6,9.6H36V12H33.6zM38.4,9.6H40.8V12H38.4zM40.8,9.6H43.2V12H40.8zM43.2,9.6H45.6V12H43.2zM45.6,9.6H48V12H45.6zM52.8,9.6H55.2V12H52.8zM57.6,9.6H60V12H57.6zM60,9.6H62.4V12H60zM69.6,9.6H72V12H69.6zM72,9.6H74.4V12H72zM81.6,9.6H84V12H81.6zM84,9.6H86.4V12H84zM91.2,9.6H93.6V12H91.2zM96,9.6H98.4V12H96zM98.4,9.6H100.8V12H98.4zM100.8,9.6H103.2V12H100.8zM105.6,9.6H108V12H105.6zM110.4,9.6H112.8V12H110.4zM120,9.6H122.4V12H120zM122.4,9.6H124.8V12H122.4zM124.8,9.6H127.2V12H124.8zM127.2,9.6H129.6V12H127.2zM129.6,9.6H132V12H129.6zM132,9.6H134.4V12H132zM134.4,9.6H136.8V12H134.4zM9.6,12H12V14.4H9.6zM24,12H26.4V14.4H24zM31.2,12H33.6V14.4H31.2zM33.6,12H36V14.4H33.6zM38.4,12H40.8V14.4H38.4zM43.2,12H45.6V14.4H43.2zM62.4,12H64.8V14.4H62.4zM69.6,12H72V14.4H69.6zM72,12H74.4V14.4H72zM74.4,12H76.8V14.4H74.4zM79.2,12H81.6V14.4H79.2zM84,12H86.4V14.4H84zM88.8,12H91.2V14.4H88.8zM93.6,12H96V14.4H93.6zM96,12H98.4V14.4H96zM98.4,12H100.8V14.4H98.4zM100.8,12H103.2V14.4H100.8zM110.4,12H112.8V14.4H110.4zM112.8,12H115.2V14.4H112.8zM120,12H122.4V14.4H120zM134.4,12H136.8V14.4H134.4zM9.6,14.4H12V16.8H9.6zM14.4,14.4H16.8V16.8H14.4zM16.8,14.4H19.2V16.8H16.8zM19.2,14.4H21.6V16.8H19.2zM24,14.4H26.4V16.8H24zM28.8,14.4H31.2V16.8H28.8zM31.2,14.4H33.6V16.8H31.2zM33.6,14.4H36V16.8H33.6zM36,14.4H38.4V16.8H36zM38.4,14.4H40.8V16.8H38.4zM40.8,14.4H43.2V16.8H40.8zM48,14.4H50.4V16.8H48zM55.2,14.4H57.6V16.8H55.2zM67.2,14.4H69.6V16.8H67.2zM69.6,14.4H72V16.8H69.6zM74.4,14.4H76.8V16.8H74.4zM86.4,14.4H88.8V16.8H86.4zM96,14.4H98.4V16.8H96zM105.6,14.4H108V16.8H105.6zM112.8,14.4H115.2V16.8H112.8zM120,14.4H122.4V16.8H120zM124.8,14.4H127.2V16.8H124.8zM127.2,14.4H129.6V16.8H127.2zM129.6,14.4H132V16.8H129.6zM134.4,14.4H136.8V16.8H134.4zM9.6,16.8H12V19.2H9.6zM14.4,16.8H16.8V19.2H14.4zM16.8,16.8H19.2V19.2H16.8zM19.2,16.8H21.6V19.2H19.2zM24,16.8H26.4V19.2H24zM31.2,16.8H33.6V19.2H31.2zM33.6,16.8H36V19.2H33.6zM40.8,16.8H43.2V19.2H40.8zM43.2,16.8H45.6V19.2H43.2zM45.6,16.8H48V19.2H45.6zM55.2,16.8H57.6V19.2H55.2zM57.6,16.8H60V19.2H57.6zM62.4,16.8H64.8V19.2H62.4zM64.8,16.8H67.2V19.2H64.8zM69.6,16.8H72V19.2H69.6zM72,16.8H74.4V19.2H72zM74.4,16.8H76.8V19.2H74.4zM81.6,16.8H84V19.2H81.6zM91.2,16.8H93.6V19.2H91.2zM93.6,16.8H96V19.2H93.6zM103.2,16.8H105.6V19.2H103.2zM105.6,16.8H108V19.2H105.6zM108,16.8H110.4V19.2H108zM110.4,16.8H112.8V19.2H110.4zM115.2,16.8H117.6V19.2H115.2zM120,16.8H122.4V19.2H120zM124.8,16.8H127.2V19.2H124.8zM127.2,16.8H129.6V19.2H127.2zM129.6,16.8H132V19.2H129.6zM134.4,16.8H136.8V19.2H134.4zM9.6,19.2H12V21.6H9.6zM14.4,19.2H16.8V21.6H14.4zM16.8,19.2H19.2V21.6H16.8zM19.2,19.2H21.6V21.6H19.2zM24,19.2H26.4V21.6H24zM28.8,19.2H31.2V21.6H28.8zM31.2,19.2H33.6V21.6H31.2zM33.6,19.2H36V21.6H33.6zM38.4,19.2H40.8V21.6H38.4zM45.6,19.2H48V21.6H45.6zM52.8,19.2H55.2V21.6H52.8zM55.2,19.2H57.6V21.6H55.2zM60,19.2H62.4V21.6H60zM67.2,19.2H69.6V21.6H67.2zM69.6,19.2H72V21.6H69.6zM72,19.2H74.4V21.6H72zM74.4,19.2H76.8V21.6H74.4zM76.8,19.2H79.2V21.6H76.8zM86.4,19.2H88.8V21.6H86.4zM91.2,19.2H93.6V21.6H91.2zM98.4,19.2H100.8V21.6H98.4zM105.6,19.2H108V21.6H105.6zM108,19.2H110.4V21.6H108zM110.4,19.2H112.8V21.6H110.4zM120,19.2H122.4V21.6H120zM124.8,19.2H127.2V21.6H124.8zM127.2,19.2H129.6V21.6H127.2zM129.6,19.2H132V21.6H129.6zM134.4,19.2H136.8V21.6H134.4zM9.6,21.6H12V24H9.6zM24,21.6H26.4V24H24zM36,21.6H38.4V24H36zM40.8,21.6H43.2V24H40.8zM45.6,21.6H48V24H45.6zM50.4,21.6H52.8V24H50.4zM52.8,21.6H55.2V24H52.8zM55.2,21.6H57.6V24H55.2zM62.4,21.6H64.8V24H62.4zM64.8,21.6H67.2V24H64.8zM67.2,21.6H69.6V24H67.2zM76.8,21.6H79.2V24H76.8zM93.6,21.6H96V24H93.6zM100.8,21.6H103.2V24H100.8zM103.2,21.6H105.6V24H103.2zM105.6,21.6H108V24H105.6zM110.4,21.6H112.8V24H110.4zM120,21.6H122.4V24H120zM134.4,21.6H136.8V24H134.4zM9.6,24H12V26.4H9.6zM12,24H14.4V26.4H12zM14.4,24H16.8V26.4H14.4zM16.8,24H19.2V26.4H16.8zM19.2,24H21.6V26.4H19.2zM21.6,24H24V26.4H21.6zM24,24H26.4V26.4H24zM28.8,24H31.2V26.4H28.8zM33.6,24H36V26.4H33.6zM38.4,24H40.8V26.4H38.4zM43.2,24H45.6V26.4H43.2zM48,24H50.4V26.4H48zM52.8,24H55.2V26.4H52.8zM57.6,24H60V26.4H57.6zM62.4,24H64.8V26.4H62.4zM67.2,24H69.6V26.4H67.2zM72,24H74.4V26.4H72zM76.8,24H79.2V26.4H76.8zM81.6,24H84V26.4H81.6zM86.4,24H88.8V26.4H86.4zM91.2,24H93.6V26.4H91.2zM96,24H98.4V26.4H96zM100.8,24H103.2V26.4H100.8zM105.6,24H108V26.4H105.6zM110.4,24H112.8V26.4H110.4zM115.2,24H117.6V26.4H115.2zM120,24H122.4V26.4H120zM122.4,24H124.8V26.4H122.4zM124.8,24H127.2V26.4H124.8zM127.2,24H129.6V26.4H127.2zM129.6,24H132V26.4H129.6zM132,24H134.4V26.4H132zM134.4,24H136.8V26.4H134.4zM28.8,26.4H31.2V28.8H28.8zM31.2,26.4H33.6V28.8H31.2zM33.6,26.4H36V28.8H33.6zM36,26.4H38.4V28.8H36zM40.8,26.4H43.2V28.8H40.8zM43.2,26.4H45.6V28.8H43.2zM45.6,26.4H48V28.8H45.6zM50.4,26.4H52.8V28.8H50.4zM52.8,26.4H55.2V28.8H52.8zM57.6,26.4H60V28.8H57.6zM60,26.4H62.4V28.8H60zM62.4,26.4H64.8V28.8H62.4zM67.2,26.4H69.6V28.8H67.2zM76.8,26.4H79.2V28.8H76.8zM79.2,26.4H81.6V28.8H79.2zM81.6,26.4H84V28.8H81.6zM91.2,26.4H93.6V28.8H91.2zM96,26.4H98.4V28.8H96zM105.6,26.4H108V28.8H105.6zM110.4,26.4H112.8V28.8H110.4zM112.8,26.4H115.2V28.8H112.8zM115.2,26.4H117.6V28.8H115.2zM21.6,28.8H24V31.2H21.6zM24,28.8H26.4V31.2H24zM31.2,28.8H33.6V31.2H31.2zM33.6,28.8H36V31.2H33.6zM36,28.8H38.4V31.2H36zM45.6,28.8H48V31.2H45.6zM50.4,28.8H52.8V31.2H50.4zM52.8,28.8H55.2V31.2H52.8zM57.6,28.8H60V31.2H57.6zM62.4,28.8H64.8V31.2H62.4zM67.2,28.8H69.6V31.2H67.2zM69.6,28.8H72V31.2H69.6zM72,28.8H74.4V31.2H72zM74.4,28.8H76.8V31.2H74.4zM76.8,28.8H79.2V31.2H76.8zM81.6,28.8H84V31.2H81.6zM84,28.8H86.4V31.2H84zM86.4,28.8H88.8V31.2H86.4zM88.8,28.8H91.2V31.2H88.8zM96,28.8H98.4V31.2H96zM98.4,28.8H100.8V31.2H98.4zM112.8,28.8H115.2V31.2H112.8zM115.2,28.8H117.6V31.2H115.2zM120,28.8H122.4V31.2H120zM124.8,28.8H127.2V31.2H124.8zM129.6,28.8H132V31.2H129.6zM134.4,28.8H136.8V31.2H134.4zM9.6,31.2H12V33.6H9.6zM14.4,31.2H16.8V33.6H14.4zM19.2,31.2H21.6V33.6H19.2zM21.6,31.2H24V33.6H21.6zM26.4,31.2H28.8V33.6H26.4zM28.8,31.2H31.2V33.6H28.8zM33.6,31.2H36V33.6H33.6zM36,31.2H38.4V33.6H36zM40.8,31.2H43.2V33.6H40.8zM43.2,31.2H45.6V33.6H43.2zM55.2,31.2H57.6V33.6H55.2zM62.4,31.2H64.8V33.6H62.4zM74.4,31.2H76.8V33.6H74.4zM79.2,31.2H81.6V33.6H79.2zM81.6,31.2H84V33.6H81.6zM84,31.2H86.4V33.6H84zM86.4,31.2H88.8V33.6H86.4zM93.6,31.2H96V33.6H93.6zM98.4,31.2H100.8V33.6H98.4zM100.8,31.2H103.2V33.6H100.8zM103.2,31.2H105.6V33.6H103.2zM110.4,31.2H112.8V33.6H110.4zM115.2,31.2H117.6V33.6H115.2zM117.6,31.2H120V33.6H117.6zM120,31.2H122.4V33.6H120zM124.8,31.2H127.2V33.6H124.8zM127.2,31.2H129.6V33.6H127.2zM9.6,33.6H12V36H9.6zM24,33.6H26.4V36H24zM26.4,33.6H28.8V36H26.4zM28.8,33.6H31.2V36H28.8zM31.2,33.6H33.6V36H31.2zM33.6,33.6H36V36H33.6zM36,33.6H38.4V36H36zM38.4,33.6H40.8V36H38.4zM40.8,33.6H43.2V36H40.8zM48,33.6H50.4V36H48zM52.8,33.6H55.2V36H52.8zM55.2,33.6H57.6V36H55.2zM57.6,33.6H60V36H57.6zM60,33.6H62.4V36H60zM62.4,33.6H64.8V36H62.4zM64.8,33.6H67.2V36H64.8zM67.2,33.6H69.6V36H67.2zM72,33.6H74.4V36H72zM86.4,33.6H88.8V36H86.4zM88.8,33.6H91.2V36H88.8zM91.2,33.6H93.6V36H91.2zM93.6,33.6H96V36H93.6zM100.8,33.6H103.2V36H100.8zM105.6,33.6H108V36H105.6zM108,33.6H110.4V36H108zM112.8,33.6H115.2V36H112.8zM115.2,33.6H117.6V36H115.2zM117.6,33.6H120V36H117.6zM120,33.6H122.4V36H120zM122.4,33.6H124.8V36H122.4zM124.8,33.6H127.2V36H124.8zM127.2,33.6H129.6V36H127.2zM129.6,33.6H132V36H129.6zM12,36H14.4V38.4H12zM16.8,36H19.2V38.4H16.8zM19.2,36H21.6V38.4H19.2zM26.4,36H28.8V38.4H26.4zM36,36H38.4V38.4H36zM38.4,36H40.8V38.4H38.4zM50.4,36H52.8V38.4H50.4zM52.8,36H55.2V38.4H52.8zM55.2,36H57.6V38.4H55.2zM57.6,36H60V38.4H57.6zM60,36H62.4V38.4H60zM67.2,36H69.6V38.4H67.2zM72,36H74.4V38.4H72zM74.4,36H76.8V38.4H74.4zM84,36H86.4V38.4H84zM86.4,36H88.8V38.4H86.4zM88.8,36H91.2V38.4H88.8zM91.2,36H93.6V38.4H91.2zM110.4,36H112.8V38.4H110.4zM127.2,36H129.6V38.4H127.2zM134.4,36H136.8V38.4H134.4zM9.6,38.4H12V40.8H9.6zM16.8,38.4H19.2V40.8H16.8zM19.2,38.4H21.6V40.8H19.2zM24,38.4H26.4V40.8H24zM26.4,38.4H28.8V40.8H26.4zM31.2,38.4H33.6V40.8H31.2zM33.6,38.4H36V40.8H33.6zM36,38.4H38.4V40.8H36zM45.6,38.4H48V40.8H45.6zM48,38.4H50.4V40.8H48zM50.4,38.4H52.8V40.8H50.4zM55.2,38.4H57.6V40.8H55.2zM57.6,38.4H60V40.8H57.6zM60,38.4H62.4V40.8H60zM67.2,38.4H69.6V40.8H67.2zM69.6,38.4H72V40.8H69.6zM86.4,38.4H88.8V40.8H86.4zM88.8,38.4H91.2V40.8H88.8zM93.6,38.4H96V40.8H93.6zM96,38.4H98.4V40.8H96zM115.2,38.4H117.6V40.8H115.2zM120,38.4H122.4V40.8H120zM124.8,38.4H127.2V40.8H124.8zM132,38.4H134.4V40.8H132zM12,40.8H14.4V43.2H12zM14.4,40.8H16.8V43.2H14.4zM16.8,40.8H19.2V43.2H16.8zM19.2,40.8H21.6V43.2H19.2zM21.6,40.8H24V43.2H21.6zM26.4,40.8H28.8V43.2H26.4zM28.8,40.8H31.2V43.2H28.8zM36,40.8H38.4V43.2H36zM38.4,40.8H40.8V43.2H38.4zM43.2,40.8H45.6V43.2H43.2zM45.6,40.8H48V43.2H45.6zM62.4,40.8H64.8V43.2H62.4zM88.8,40.8H91.2V43.2H88.8zM91.2,40.8H93.6V43.2H91.2zM93.6,40.8H96V43.2H93.6zM96,40.8H98.4V43.2H96zM98.4,40.8H100.8V43.2H98.4zM105.6,40.8H108V43.2H105.6zM108,40.8H110.4V43.2H108zM110.4,40.8H112.8V43.2H110.4zM122.4,40.8H124.8V43.2H122.4zM124.8,40.8H127.2V43.2H124.8zM127.2,40.8H129.6V43.2H127.2zM134.4,40.8H136.8V43.2H134.4zM9.6,43.2H12V45.6H9.6zM16.8,43.2H19.2V45.6H16.8zM19.2,43.2H21.6V45.6H19.2zM24,43.2H26.4V45.6H24zM26.4,43.2H28.8V45.6H26.4zM31.2,43.2H33.6V45.6H31.2zM33.6,43.2H36V45.6H33.6zM36,43.2H38.4V45.6H36zM40.8,43.2H43.2V45.6H40.8zM43.2,43.2H45.6V45.6H43.2zM45.6,43.2H48V45.6H45.6zM48,43.2H50.4V45.6H48zM52.8,43.2H55.2V45.6H52.8zM62.4,43.2H64.8V45.6H62.4zM64.8,43.2H67.2V45.6H64.8zM69.6,43.2H72V45.6H69.6zM74.4,43.2H76.8V45.6H74.4zM88.8,43.2H91.2V45.6H88.8zM91.2,43.2H93.6V45.6H91.2zM93.6,43.2H96V45.6H93.6zM96,43.2H98.4V45.6H96zM100.8,43.2H103.2V45.6H100.8zM105.6,43.2H108V45.6H105.6zM112.8,43.2H115.2V45.6H112.8zM122.4,43.2H124.8V45.6H122.4zM129.6,43.2H132V45.6H129.6zM12,45.6H14.4V48H12zM16.8,45.6H19.2V48H16.8zM26.4,45.6H28.8V48H26.4zM36,45.6H38.4V48H36zM43.2,45.6H45.6V48H43.2zM45.6,45.6H48V48H45.6zM48,45.6H50.4V48H48zM50.4,45.6H52.8V48H50.4zM55.2,45.6H57.6V48H55.2zM62.4,45.6H64.8V48H62.4zM64.8,45.6H67.2V48H64.8zM72,45.6H74.4V48H72zM74.4,45.6H76.8V48H74.4zM76.8,45.6H79.2V48H76.8zM79.2,45.6H81.6V48H79.2zM81.6,45.6H84V48H81.6zM88.8,45.6H91.2V48H88.8zM100.8,45.6H103.2V48H100.8zM103.2,45.6H105.6V48H103.2zM108,45.6H110.4V48H108zM115.2,45.6H117.6V48H115.2zM117.6,45.6H120V48H117.6zM120,45.6H122.4V48H120zM122.4,45.6H124.8V48H122.4zM127.2,45.6H129.6V48H127.2zM129.6,45.6H132V48H129.6zM132,45.6H134.4V48H132zM12,48H14.4V50.4H12zM14.4,48H16.8V50.4H14.4zM19.2,48H21.6V50.4H19.2zM21.6,48H24V50.4H21.6zM24,48H26.4V50.4H24zM31.2,48H33.6V50.4H31.2zM33.6,48H36V50.4H33.6zM38.4,48H40.8V50.4H38.4zM55.2,48H57.6V50.4H55.2zM64.8,48H67.2V50.4H64.8zM72,48H74.4V50.4H72zM74.4,48H76.8V50.4H74.4zM76.8,48H79.2V50.4H76.8zM79.2,48H81.6V50.4H79.2zM81.6,48H84V50.4H81.6zM86.4,48H88.8V50.4H86.4zM93.6,48H96V50.4H93.6zM96,48H98.4V50.4H96zM100.8,48H103.2V50.4H100.8zM108,48H110.4V50.4H108zM110.4,48H112.8V50.4H110.4zM112.8,48H115.2V50.4H112.8zM115.2,48H117.6V50.4H115.2zM117.6,48H120V50.4H117.6zM122.4,48H124.8V50.4H122.4zM124.8,48H127.2V50.4H124.8zM129.6,48H132V50.4H129.6zM132,48H134.4V50.4H132zM134.4,48H136.8V50.4H134.4zM9.6,50.4H12V52.8H9.6zM14.4,50.4H16.8V52.8H14.4zM16.8,50.4H19.2V52.8H16.8zM26.4,50.4H28.8V52.8H26.4zM31.2,50.4H33.6V52.8H31.2zM33.6,50.4H36V52.8H33.6zM36,50.4H38.4V52.8H36zM38.4,50.4H40.8V52.8H38.4zM40.8,50.4H43.2V52.8H40.8zM43.2,50.4H45.6V52.8H43.2zM45.6,50.4H48V52.8H45.6zM50.4,50.4H52.8V52.8H50.4zM57.6,50.4H60V52.8H57.6zM60,50.4H62.4V52.8H60zM67.2,50.4H69.6V52.8H67.2zM79.2,50.4H81.6V52.8H79.2zM81.6,50.4H84V52.8H81.6zM84,50.4H86.4V52.8H84zM86.4,50.4H88.8V52.8H86.4zM91.2,50.4H93.6V52.8H91.2zM93.6,50.4H96V52.8H93.6zM96,50.4H98.4V52.8H96zM98.4,50.4H100.8V52.8H98.4zM103.2,50.4H105.6V52.8H103.2zM108,50.4H110.4V52.8H108zM110.4,50.4H112.8V52.8H110.4zM117.6,50.4H120V52.8H117.6zM122.4,50.4H124.8V52.8H122.4zM127.2,50.4H129.6V52.8H127.2zM134.4,50.4H136.8V52.8H134.4zM9.6,52.8H12V55.2H9.6zM21.6,52.8H24V55.2H21.6zM24,52.8H26.4V55.2H24zM26.4,52.8H28.8V55.2H26.4zM31.2,52.8H33.6V55.2H31.2zM36,52.8H38.4V55.2H36zM43.2,52.8H45.6V55.2H43.2zM52.8,52.8H55.2V55.2H52.8zM57.6,52.8H60V55.2H57.6zM60,52.8H62.4V55.2H60zM62.4,52.8H64.8V55.2H62.4zM69.6,52.8H72V55.2H69.6zM74.4,52.8H76.8V55.2H74.4zM76.8,52.8H79.2V55.2H76.8zM79.2,52.8H81.6V55.2H79.2zM86.4,52.8H88.8V55.2H86.4zM93.6,52.8H96V55.2H93.6zM98.4,52.8H100.8V55.2H98.4zM115.2,52.8H117.6V55.2H115.2zM122.4,52.8H124.8V55.2H122.4zM124.8,52.8H127.2V55.2H124.8zM134.4,52.8H136.8V55.2H134.4zM9.6,55.2H12V57.6H9.6zM31.2,55.2H33.6V57.6H31.2zM38.4,55.2H40.8V57.6H38.4zM40.8,55.2H43.2V57.6H40.8zM48,55.2H50.4V57.6H48zM55.2,55.2H57.6V57.6H55.2zM60,55.2H62.4V57.6H60zM64.8,55.2H67.2V57.6H64.8zM67.2,55.2H69.6V57.6H67.2zM69.6,55.2H72V57.6H69.6zM76.8,55.2H79.2V57.6H76.8zM79.2,55.2H81.6V57.6H79.2zM81.6,55.2H84V57.6H81.6zM88.8,55.2H91.2V57.6H88.8zM91.2,55.2H93.6V57.6H91.2zM93.6,55.2H96V57.6H93.6zM96,55.2H98.4V57.6H96zM105.6,55.2H108V57.6H105.6zM110.4,55.2H112.8V57.6H110.4zM112.8,55.2H115.2V57.6H112.8zM115.2,55.2H117.6V57.6H115.2zM132,55.2H134.4V57.6H132zM12,57.6H14.4V60H12zM14.4,57.6H16.8V60H14.4zM16.8,57.6H19.2V60H16.8zM19.2,57.6H21.6V60H19.2zM24,57.6H26.4V60H24zM26.4,57.6H28.8V60H26.4zM28.8,57.6H31.2V60H28.8zM38.4,57.6H40.8V60H38.4zM45.6,57.6H48V60H45.6zM50.4,57.6H52.8V60H50.4zM55.2,57.6H57.6V60H55.2zM60,57.6H62.4V60H60zM69.6,57.6H72V60H69.6zM72,57.6H74.4V60H72zM74.4,57.6H76.8V60H74.4zM76.8,57.6H79.2V60H76.8zM81.6,57.6H84V60H81.6zM84,57.6H86.4V60H84zM86.4,57.6H88.8V60H86.4zM88.8,57.6H91.2V60H88.8zM91.2,57.6H93.6V60H91.2zM96,57.6H98.4V60H96zM98.4,57.6H100.8V60H98.4zM112.8,57.6H115.2V60H112.8zM115.2,57.6H117.6V60H115.2zM122.4,57.6H124.8V60H122.4zM124.8,57.6H127.2V60H124.8zM129.6,57.6H132V60H129.6zM9.6,60H12V62.4H9.6zM14.4,60H16.8V62.4H14.4zM16.8,60H19.2V62.4H16.8zM26.4,60H28.8V62.4H26.4zM31.2,60H33.6V62.4H31.2zM36,60H38.4V62.4H36zM38.4,60H40.8V62.4H38.4zM43.2,60H45.6V62.4H43.2zM45.6,60H48V62.4H45.6zM55.2,60H57.6V62.4H55.2zM57.6,60H60V62.4H57.6zM60,60H62.4V62.4H60zM62.4,60H64.8V62.4H62.4zM64.8,60H67.2V62.4H64.8zM69.6,60H72V62.4H69.6zM76.8,60H79.2V62.4H76.8zM79.2,60H81.6V62.4H79.2zM84,60H86.4V62.4H84zM88.8,60H91.2V62.4H88.8zM93.6,60H96V62.4H93.6zM96,60H98.4V62.4H96zM100.8,60H103.2V62.4H100.8zM103.2,60H105.6V62.4H103.2zM108,60H110.4V62.4H108zM110.4,60H112.8V62.4H110.4zM112.8,60H115.2V62.4H112.8zM115.2,60H117.6V62.4H115.2zM117.6,60H120V62.4H117.6zM120,60H122.4V62.4H120zM122.4,60H124.8V62.4H122.4zM124.8,60H127.2V62.4H124.8zM127.2,60H129.6V62.4H127.2zM129.6,60H132V62.4H129.6zM134.4,60H136.8V62.4H134.4zM16.8,62.4H19.2V64.8H16.8zM19.2,62.4H21.6V64.8H19.2zM24,62.4H26.4V64.8H24zM26.4,62.4H28.8V64.8H26.4zM28.8,62.4H31.2V64.8H28.8zM33.6,62.4H36V64.8H33.6zM45.6,62.4H48V64.8H45.6zM48,62.4H50.4V64.8H48zM52.8,62.4H55.2V64.8H52.8zM57.6,62.4H60V64.8H57.6zM60,62.4H62.4V64.8H60zM72,62.4H74.4V64.8H72zM79.2,62.4H81.6V64.8H79.2zM81.6,62.4H84V64.8H81.6zM84,62.4H86.4V64.8H84zM86.4,62.4H88.8V64.8H86.4zM96,62.4H98.4V64.8H96zM98.4,62.4H100.8V64.8H98.4zM103.2,62.4H105.6V64.8H103.2zM112.8,62.4H115.2V64.8H112.8zM115.2,62.4H117.6V64.8H115.2zM120,62.4H122.4V64.8H120zM122.4,62.4H124.8V64.8H122.4zM124.8,62.4H127.2V64.8H124.8zM127.2,62.4H129.6V64.8H127.2zM129.6,62.4H132V64.8H129.6zM134.4,62.4H136.8V64.8H134.4zM9.6,64.8H12V67.2H9.6zM21.6,64.8H24V67.2H21.6zM33.6,64.8H36V67.2H33.6zM40.8,64.8H43.2V67.2H40.8zM48,64.8H50.4V67.2H48zM52.8,64.8H55.2V67.2H52.8zM62.4,64.8H64.8V67.2H62.4zM67.2,64.8H69.6V67.2H67.2zM69.6,64.8H72V67.2H69.6zM74.4,64.8H76.8V67.2H74.4zM84,64.8H86.4V67.2H84zM88.8,64.8H91.2V67.2H88.8zM100.8,64.8H103.2V67.2H100.8zM105.6,64.8H108V67.2H105.6zM110.4,64.8H112.8V67.2H110.4zM117.6,64.8H120V67.2H117.6zM122.4,64.8H124.8V67.2H122.4zM127.2,64.8H129.6V67.2H127.2zM134.4,64.8H136.8V67.2H134.4zM14.4,67.2H16.8V69.6H14.4zM19.2,67.2H21.6V69.6H19.2zM21.6,67.2H24V69.6H21.6zM24,67.2H26.4V69.6H24zM26.4,67.2H28.8V69.6H26.4zM28.8,67.2H31.2V69.6H28.8zM31.2,67.2H33.6V69.6H31.2zM38.4,67.2H40.8V69.6H38.4zM48,67.2H50.4V69.6H48zM52.8,67.2H55.2V69.6H52.8zM60,67.2H62.4V69.6H60zM67.2,67.2H69.6V69.6H67.2zM69.6,67.2H72V69.6H69.6zM72,67.2H74.4V69.6H72zM74.4,67.2H76.8V69.6H74.4zM76.8,67.2H79.2V69.6H76.8zM79.2,67.2H81.6V69.6H79.2zM81.6,67.2H84V69.6H81.6zM86.4,67.2H88.8V69.6H86.4zM91.2,67.2H93.6V69.6H91.2zM96,67.2H98.4V69.6H96zM98.4,67.2H100.8V69.6H98.4zM100.8,67.2H103.2V69.6H100.8zM105.6,67.2H108V69.6H105.6zM112.8,67.2H115.2V69.6H112.8zM115.2,67.2H117.6V69.6H115.2zM117.6,67.2H120V69.6H117.6zM120,67.2H122.4V69.6H120zM122.4,67.2H124.8V69.6H122.4zM124.8,67.2H127.2V69.6H124.8zM127.2,67.2H129.6V69.6H127.2zM9.6,69.6H12V72H9.6zM14.4,69.6H16.8V72H14.4zM19.2,69.6H21.6V72H19.2zM28.8,69.6H31.2V72H28.8zM31.2,69.6H33.6V72H31.2zM36,69.6H38.4V72H36zM43.2,69.6H45.6V72H43.2zM50.4,69.6H52.8V72H50.4zM57.6,69.6H60V72H57.6zM60,69.6H62.4V72H60zM62.4,69.6H64.8V72H62.4zM64.8,69.6H67.2V72H64.8zM67.2,69.6H69.6V72H67.2zM76.8,69.6H79.2V72H76.8zM81.6,69.6H84V72H81.6zM88.8,69.6H91.2V72H88.8zM91.2,69.6H93.6V72H91.2zM93.6,69.6H96V72H93.6zM98.4,69.6H100.8V72H98.4zM108,69.6H110.4V72H108zM110.4,69.6H112.8V72H110.4zM112.8,69.6H115.2V72H112.8zM115.2,69.6H117.6V72H115.2zM124.8,69.6H127.2V72H124.8zM132,69.6H134.4V72H132zM134.4,69.6H136.8V72H134.4zM14.4,72H16.8V74.4H14.4zM19.2,72H21.6V74.4H19.2zM24,72H26.4V74.4H24zM28.8,72H31.2V74.4H28.8zM36,72H38.4V74.4H36zM38.4,72H40.8V74.4H38.4zM57.6,72H60V74.4H57.6zM60,72H62.4V74.4H60zM62.4,72H64.8V74.4H62.4zM64.8,72H67.2V74.4H64.8zM67.2,72H69.6V74.4H67.2zM72,72H74.4V74.4H72zM76.8,72H79.2V74.4H76.8zM79.2,72H81.6V74.4H79.2zM81.6,72H84V74.4H81.6zM86.4,72H88.8V74.4H86.4zM88.8,72H91.2V74.4H88.8zM96,72H98.4V74.4H96zM100.8,72H103.2V74.4H100.8zM115.2,72H117.6V74.4H115.2zM120,72H122.4V74.4H120zM124.8,72H127.2V74.4H124.8zM127.2,72H129.6V74.4H127.2zM12,74.4H14.4V76.8H12zM14.4,74.4H16.8V76.8H14.4zM19.2,74.4H21.6V76.8H19.2zM28.8,74.4H31.2V76.8H28.8zM31.2,74.4H33.6V76.8H31.2zM36,74.4H38.4V76.8H36zM38.4,74.4H40.8V76.8H38.4zM43.2,74.4H45.6V76.8H43.2zM52.8,74.4H55.2V76.8H52.8zM57.6,74.4H60V76.8H57.6zM60,74.4H62.4V76.8H60zM62.4,74.4H64.8V76.8H62.4zM64.8,74.4H67.2V76.8H64.8zM67.2,74.4H69.6V76.8H67.2zM76.8,74.4H79.2V76.8H76.8zM84,74.4H86.4V76.8H84zM88.8,74.4H91.2V76.8H88.8zM100.8,74.4H103.2V76.8H100.8zM103.2,74.4H105.6V76.8H103.2zM108,74.4H110.4V76.8H108zM115.2,74.4H117.6V76.8H115.2zM124.8,74.4H127.2V76.8H124.8zM129.6,74.4H132V76.8H129.6zM132,74.4H134.4V76.8H132zM134.4,74.4H136.8V76.8H134.4zM9.6,76.8H12V79.2H9.6zM14.4,76.8H16.8V79.2H14.4zM16.8,76.8H19.2V79.2H16.8zM19.2,76.8H21.6V79.2H19.2zM21.6,76.8H24V79.2H21.6zM24,76.8H26.4V79.2H24zM26.4,76.8H28.8V79.2H26.4zM28.8,76.8H31.2V79.2H28.8zM31.2,76.8H33.6V79.2H31.2zM36,76.8H38.4V79.2H36zM38.4,76.8H40.8V79.2H38.4zM43.2,76.8H45.6V79.2H43.2zM50.4,76.8H52.8V79.2H50.4zM55.2,76.8H57.6V79.2H55.2zM62.4,76.8H64.8V79.2H62.4zM67.2,76.8H69.6V79.2H67.2zM69.6,76.8H72V79.2H69.6zM72,76.8H74.4V79.2H72zM74.4,76.8H76.8V79.2H74.4zM76.8,76.8H79.2V79.2H76.8zM79.2,76.8H81.6V79.2H79.2zM81.6,76.8H84V79.2H81.6zM88.8,76.8H91.2V79.2H88.8zM91.2,76.8H93.6V79.2H91.2zM93.6,76.8H96V79.2H93.6zM96,76.8H98.4V79.2H96zM112.8,76.8H115.2V79.2H112.8zM115.2,76.8H117.6V79.2H115.2zM117.6,76.8H120V79.2H117.6zM120,76.8H122.4V79.2H120zM122.4,76.8H124.8V79.2H122.4zM124.8,76.8H127.2V79.2H124.8zM127.2,76.8H129.6V79.2H127.2zM134.4,76.8H136.8V79.2H134.4zM9.6,79.2H12V81.6H9.6zM12,79.2H14.4V81.6H12zM14.4,79.2H16.8V81.6H14.4zM21.6,79.2H24V81.6H21.6zM33.6,79.2H36V81.6H33.6zM36,79.2H38.4V81.6H36zM45.6,79.2H48V81.6H45.6zM48,79.2H50.4V81.6H48zM50.4,79.2H52.8V81.6H50.4zM52.8,79.2H55.2V81.6H52.8zM55.2,79.2H57.6V81.6H55.2zM57.6,79.2H60V81.6H57.6zM64.8,79.2H67.2V81.6H64.8zM67.2,79.2H69.6V81.6H67.2zM69.6,79.2H72V81.6H69.6zM72,79.2H74.4V81.6H72zM74.4,79.2H76.8V81.6H74.4zM76.8,79.2H79.2V81.6H76.8zM79.2,79.2H81.6V81.6H79.2zM81.6,79.2H84V81.6H81.6zM84,79.2H86.4V81.6H84zM96,79.2H98.4V81.6H96zM98.4,79.2H100.8V81.6H98.4zM103.2,79.2H105.6V81.6H103.2zM108,79.2H110.4V81.6H108zM112.8,79.2H115.2V81.6H112.8zM122.4,79.2H124.8V81.6H122.4zM124.8,79.2H127.2V81.6H124.8zM129.6,79.2H132V81.6H129.6zM134.4,79.2H136.8V81.6H134.4zM16.8,81.6H19.2V84H16.8zM19.2,81.6H21.6V84H19.2zM21.6,81.6H24V84H21.6zM24,81.6H26.4V84H24zM31.2,81.6H33.6V84H31.2zM33.6,81.6H36V84H33.6zM36,81.6H38.4V84H36zM38.4,81.6H40.8V84H38.4zM40.8,81.6H43.2V84H40.8zM52.8,81.6H55.2V84H52.8zM57.6,81.6H60V84H57.6zM69.6,81.6H72V84H69.6zM79.2,81.6H81.6V84H79.2zM84,81.6H86.4V84H84zM86.4,81.6H88.8V84H86.4zM88.8,81.6H91.2V84H88.8zM93.6,81.6H96V84H93.6zM96,81.6H98.4V84H96zM105.6,81.6H108V84H105.6zM108,81.6H110.4V84H108zM110.4,81.6H112.8V84H110.4zM112.8,81.6H115.2V84H112.8zM117.6,81.6H120V84H117.6zM120,81.6H122.4V84H120zM127.2,81.6H129.6V84H127.2zM129.6,81.6H132V84H129.6zM134.4,81.6H136.8V84H134.4zM16.8,84H19.2V86.4H16.8zM19.2,84H21.6V86.4H19.2zM21.6,84H24V86.4H21.6zM26.4,84H28.8V86.4H26.4zM31.2,84H33.6V86.4H31.2zM38.4,84H40.8V86.4H38.4zM45.6,84H48V86.4H45.6zM48,84H50.4V86.4H48zM50.4,84H52.8V86.4H50.4zM52.8,84H55.2V86.4H52.8zM57.6,84H60V86.4H57.6zM62.4,84H64.8V86.4H62.4zM64.8,84H67.2V86.4H64.8zM72,84H74.4V86.4H72zM74.4,84H76.8V86.4H74.4zM76.8,84H79.2V86.4H76.8zM79.2,84H81.6V86.4H79.2zM81.6,84H84V86.4H81.6zM84,84H86.4V86.4H84zM88.8,84H91.2V86.4H88.8zM103.2,84H105.6V86.4H103.2zM105.6,84H108V86.4H105.6zM112.8,84H115.2V86.4H112.8zM115.2,84H117.6V86.4H115.2zM120,84H122.4V86.4H120zM124.8,84H127.2V86.4H124.8zM127.2,84H129.6V86.4H127.2zM134.4,84H136.8V86.4H134.4zM9.6,86.4H12V88.8H9.6zM12,86.4H14.4V88.8H12zM16.8,86.4H19.2V88.8H16.8zM21.6,86.4H24V88.8H21.6zM24,86.4H26.4V88.8H24zM26.4,86.4H28.8V88.8H26.4zM28.8,86.4H31.2V88.8H28.8zM33.6,86.4H36V88.8H33.6zM36,86.4H38.4V88.8H36zM40.8,86.4H43.2V88.8H40.8zM43.2,86.4H45.6V88.8H43.2zM45.6,86.4H48V88.8H45.6zM50.4,86.4H52.8V88.8H50.4zM52.8,86.4H55.2V88.8H52.8zM55.2,86.4H57.6V88.8H55.2zM57.6,86.4H60V88.8H57.6zM64.8,86.4H67.2V88.8H64.8zM67.2,86.4H69.6V88.8H67.2zM69.6,86.4H72V88.8H69.6zM76.8,86.4H79.2V88.8H76.8zM81.6,86.4H84V88.8H81.6zM84,86.4H86.4V88.8H84zM86.4,86.4H88.8V88.8H86.4zM93.6,86.4H96V88.8H93.6zM96,86.4H98.4V88.8H96zM98.4,86.4H100.8V88.8H98.4zM100.8,86.4H103.2V88.8H100.8zM103.2,86.4H105.6V88.8H103.2zM115.2,86.4H117.6V88.8H115.2zM120,86.4H122.4V88.8H120zM127.2,86.4H129.6V88.8H127.2zM129.6,86.4H132V88.8H129.6zM134.4,86.4H136.8V88.8H134.4zM14.4,88.8H16.8V91.2H14.4zM21.6,88.8H24V91.2H21.6zM26.4,88.8H28.8V91.2H26.4zM31.2,88.8H33.6V91.2H31.2zM36,88.8H38.4V91.2H36zM40.8,88.8H43.2V91.2H40.8zM43.2,88.8H45.6V91.2H43.2zM45.6,88.8H48V91.2H45.6zM62.4,88.8H64.8V91.2H62.4zM67.2,88.8H69.6V91.2H67.2zM69.6,88.8H72V91.2H69.6zM79.2,88.8H81.6V91.2H79.2zM81.6,88.8H84V91.2H81.6zM91.2,88.8H93.6V91.2H91.2zM93.6,88.8H96V91.2H93.6zM100.8,88.8H103.2V91.2H100.8zM110.4,88.8H112.8V91.2H110.4zM122.4,88.8H124.8V91.2H122.4zM124.8,88.8H127.2V91.2H124.8zM129.6,88.8H132V91.2H129.6zM9.6,91.2H12V93.6H9.6zM12,91.2H14.4V93.6H12zM16.8,91.2H19.2V93.6H16.8zM24,91.2H26.4V93.6H24zM28.8,91.2H31.2V93.6H28.8zM31.2,91.2H33.6V93.6H31.2zM38.4,91.2H40.8V93.6H38.4zM40.8,91.2H43.2V93.6H40.8zM45.6,91.2H48V93.6H45.6zM52.8,91.2H55.2V93.6H52.8zM60,91.2H62.4V93.6H60zM64.8,91.2H67.2V93.6H64.8zM69.6,91.2H72V93.6H69.6zM74.4,91.2H76.8V93.6H74.4zM76.8,91.2H79.2V93.6H76.8zM79.2,91.2H81.6V93.6H79.2zM84,91.2H86.4V93.6H84zM91.2,91.2H93.6V93.6H91.2zM98.4,91.2H100.8V93.6H98.4zM100.8,91.2H103.2V93.6H100.8zM112.8,91.2H115.2V93.6H112.8zM115.2,91.2H117.6V93.6H115.2zM117.6,91.2H120V93.6H117.6zM124.8,91.2H127.2V93.6H124.8zM127.2,91.2H129.6V93.6H127.2zM12,93.6H14.4V96H12zM14.4,93.6H16.8V96H14.4zM16.8,93.6H19.2V96H16.8zM21.6,93.6H24V96H21.6zM28.8,93.6H31.2V96H28.8zM31.2,93.6H33.6V96H31.2zM36,93.6H38.4V96H36zM38.4,93.6H40.8V96H38.4zM40.8,93.6H43.2V96H40.8zM50.4,93.6H52.8V96H50.4zM55.2,93.6H57.6V96H55.2zM60,93.6H62.4V96H60zM62.4,93.6H64.8V96H62.4zM64.8,93.6H67.2V96H64.8zM69.6,93.6H72V96H69.6zM72,93.6H74.4V96H72zM79.2,93.6H81.6V96H79.2zM81.6,93.6H84V96H81.6zM105.6,93.6H108V96H105.6zM112.8,93.6H115.2V96H112.8zM120,93.6H122.4V96H120zM122.4,93.6H124.8V96H122.4zM124.8,93.6H127.2V96H124.8zM127.2,93.6H129.6V96H127.2zM132,93.6H134.4V96H132zM9.6,96H12V98.4H9.6zM12,96H14.4V98.4H12zM14.4,96H16.8V98.4H14.4zM19.2,96H21.6V98.4H19.2zM21.6,96H24V98.4H21.6zM24,96H26.4V98.4H24zM26.4,96H28.8V98.4H26.4zM31.2,96H33.6V98.4H31.2zM33.6,96H36V98.4H33.6zM36,96H38.4V98.4H36zM40.8,96H43.2V98.4H40.8zM45.6,96H48V98.4H45.6zM48,96H50.4V98.4H48zM55.2,96H57.6V98.4H55.2zM57.6,96H60V98.4H57.6zM62.4,96H64.8V98.4H62.4zM67.2,96H69.6V98.4H67.2zM72,96H74.4V98.4H72zM74.4,96H76.8V98.4H74.4zM86.4,96H88.8V98.4H86.4zM93.6,96H96V98.4H93.6zM96,96H98.4V98.4H96zM103.2,96H105.6V98.4H103.2zM105.6,96H108V98.4H105.6zM110.4,96H112.8V98.4H110.4zM112.8,96H115.2V98.4H112.8zM120,96H122.4V98.4H120zM127.2,96H129.6V98.4H127.2zM9.6,98.4H12V100.8H9.6zM14.4,98.4H16.8V100.8H14.4zM16.8,98.4H19.2V100.8H16.8zM21.6,98.4H24V100.8H21.6zM33.6,98.4H36V100.8H33.6zM38.4,98.4H40.8V100.8H38.4zM57.6,98.4H60V100.8H57.6zM64.8,98.4H67.2V100.8H64.8zM67.2,98.4H69.6V100.8H67.2zM72,98.4H74.4V100.8H72zM74.4,98.4H76.8V100.8H74.4zM76.8,98.4H79.2V100.8H76.8zM79.2,98.4H81.6V100.8H79.2zM81.6,98.4H84V100.8H81.6zM84,98.4H86.4V100.8H84zM88.8,98.4H91.2V100.8H88.8zM93.6,98.4H96V100.8H93.6zM96,98.4H98.4V100.8H96zM98.4,98.4H100.8V100.8H98.4zM103.2,98.4H105.6V100.8H103.2zM105.6,98.4H108V100.8H105.6zM108,98.4H110.4V100.8H108zM110.4,98.4H112.8V100.8H110.4zM112.8,98.4H115.2V100.8H112.8zM115.2,98.4H117.6V100.8H115.2zM117.6,98.4H120V100.8H117.6zM122.4,98.4H124.8V100.8H122.4zM124.8,98.4H127.2V100.8H124.8zM127.2,98.4H129.6V100.8H127.2zM134.4,98.4H136.8V100.8H134.4zM9.6,100.8H12V103.2H9.6zM14.4,100.8H16.8V103.2H14.4zM16.8,100.8H19.2V103.2H16.8zM19.2,100.8H21.6V103.2H19.2zM24,100.8H26.4V103.2H24zM31.2,100.8H33.6V103.2H31.2zM33.6,100.8H36V103.2H33.6zM36,100.8H38.4V103.2H36zM38.4,100.8H40.8V103.2H38.4zM45.6,100.8H48V103.2H45.6zM48,100.8H50.4V103.2H48zM52.8,100.8H55.2V103.2H52.8zM55.2,100.8H57.6V103.2H55.2zM62.4,100.8H64.8V103.2H62.4zM64.8,100.8H67.2V103.2H64.8zM69.6,100.8H72V103.2H69.6zM76.8,100.8H79.2V103.2H76.8zM81.6,100.8H84V103.2H81.6zM84,100.8H86.4V103.2H84zM86.4,100.8H88.8V103.2H86.4zM91.2,100.8H93.6V103.2H91.2zM93.6,100.8H96V103.2H93.6zM96,100.8H98.4V103.2H96zM100.8,100.8H103.2V103.2H100.8zM105.6,100.8H108V103.2H105.6zM112.8,100.8H115.2V103.2H112.8zM124.8,100.8H127.2V103.2H124.8zM127.2,100.8H129.6V103.2H127.2zM9.6,103.2H12V105.6H9.6zM12,103.2H14.4V105.6H12zM14.4,103.2H16.8V105.6H14.4zM16.8,103.2H19.2V105.6H16.8zM21.6,103.2H24V105.6H21.6zM36,103.2H38.4V105.6H36zM38.4,103.2H40.8V105.6H38.4zM40.8,103.2H43.2V105.6H40.8zM43.2,103.2H45.6V105.6H43.2zM45.6,103.2H48V105.6H45.6zM55.2,103.2H57.6V105.6H55.2zM57.6,103.2H60V105.6H57.6zM60,103.2H62.4V105.6H60zM62.4,103.2H64.8V105.6H62.4zM74.4,103.2H76.8V105.6H74.4zM84,103.2H86.4V105.6H84zM86.4,103.2H88.8V105.6H86.4zM100.8,103.2H103.2V105.6H100.8zM110.4,103.2H112.8V105.6H110.4zM112.8,103.2H115.2V105.6H112.8zM115.2,103.2H117.6V105.6H115.2zM117.6,103.2H120V105.6H117.6zM122.4,103.2H124.8V105.6H122.4zM124.8,103.2H127.2V105.6H124.8zM127.2,103.2H129.6V105.6H127.2zM129.6,103.2H132V105.6H129.6zM132,103.2H134.4V105.6H132zM134.4,103.2H136.8V105.6H134.4zM9.6,105.6H12V108H9.6zM14.4,105.6H16.8V108H14.4zM16.8,105.6H19.2V108H16.8zM19.2,105.6H21.6V108H19.2zM24,105.6H26.4V108H24zM26.4,105.6H28.8V108H26.4zM28.8,105.6H31.2V108H28.8zM31.2,105.6H33.6V108H31.2zM38.4,105.6H40.8V108H38.4zM43.2,105.6H45.6V108H43.2zM45.6,105.6H48V108H45.6zM50.4,105.6H52.8V108H50.4zM55.2,105.6H57.6V108H55.2zM57.6,105.6H60V108H57.6zM60,105.6H62.4V108H60zM72,105.6H74.4V108H72zM79.2,105.6H81.6V108H79.2zM81.6,105.6H84V108H81.6zM84,105.6H86.4V108H84zM86.4,105.6H88.8V108H86.4zM88.8,105.6H91.2V108H88.8zM91.2,105.6H93.6V108H91.2zM96,105.6H98.4V108H96zM98.4,105.6H100.8V108H98.4zM100.8,105.6H103.2V108H100.8zM103.2,105.6H105.6V108H103.2zM110.4,105.6H112.8V108H110.4zM115.2,105.6H117.6V108H115.2zM117.6,105.6H120V108H117.6zM120,105.6H122.4V108H120zM124.8,105.6H127.2V108H124.8zM129.6,105.6H132V108H129.6zM134.4,105.6H136.8V108H134.4zM9.6,108H12V110.4H9.6zM14.4,108H16.8V110.4H14.4zM16.8,108H19.2V110.4H16.8zM19.2,108H21.6V110.4H19.2zM26.4,108H28.8V110.4H26.4zM28.8,108H31.2V110.4H28.8zM33.6,108H36V110.4H33.6zM38.4,108H40.8V110.4H38.4zM40.8,108H43.2V110.4H40.8zM48,108H50.4V110.4H48zM57.6,108H60V110.4H57.6zM60,108H62.4V110.4H60zM62.4,108H64.8V110.4H62.4zM67.2,108H69.6V110.4H67.2zM69.6,108H72V110.4H69.6zM72,108H74.4V110.4H72zM74.4,108H76.8V110.4H74.4zM81.6,108H84V110.4H81.6zM88.8,108H91.2V110.4H88.8zM93.6,108H96V110.4H93.6zM96,108H98.4V110.4H96zM98.4,108H100.8V110.4H98.4zM103.2,108H105.6V110.4H103.2zM105.6,108H108V110.4H105.6zM110.4,108H112.8V110.4H110.4zM117.6,108H120V110.4H117.6zM122.4,108H124.8V110.4H122.4zM134.4,108H136.8V110.4H134.4zM9.6,110.4H12V112.8H9.6zM12,110.4H14.4V112.8H12zM16.8,110.4H19.2V112.8H16.8zM19.2,110.4H21.6V112.8H19.2zM21.6,110.4H24V112.8H21.6zM24,110.4H26.4V112.8H24zM31.2,110.4H33.6V112.8H31.2zM36,110.4H38.4V112.8H36zM38.4,110.4H40.8V112.8H38.4zM43.2,110.4H45.6V112.8H43.2zM45.6,110.4H48V112.8H45.6zM48,110.4H50.4V112.8H48zM50.4,110.4H52.8V112.8H50.4zM64.8,110.4H67.2V112.8H64.8zM72,110.4H74.4V112.8H72zM76.8,110.4H79.2V112.8H76.8zM79.2,110.4H81.6V112.8H79.2zM86.4,110.4H88.8V112.8H86.4zM91.2,110.4H93.6V112.8H91.2zM96,110.4H98.4V112.8H96zM98.4,110.4H100.8V112.8H98.4zM120,110.4H122.4V112.8H120zM122.4,110.4H124.8V112.8H122.4zM127.2,110.4H129.6V112.8H127.2zM129.6,110.4H132V112.8H129.6zM134.4,110.4H136.8V112.8H134.4zM12,112.8H14.4V115.2H12zM14.4,112.8H16.8V115.2H14.4zM26.4,112.8H28.8V115.2H26.4zM31.2,112.8H33.6V115.2H31.2zM33.6,112.8H36V115.2H33.6zM36,112.8H38.4V115.2H36zM43.2,112.8H45.6V115.2H43.2zM48,112.8H50.4V115.2H48zM57.6,112.8H60V115.2H57.6zM60,112.8H62.4V115.2H60zM69.6,112.8H72V115.2H69.6zM72,112.8H74.4V115.2H72zM76.8,112.8H79.2V115.2H76.8zM79.2,112.8H81.6V115.2H79.2zM88.8,112.8H91.2V115.2H88.8zM98.4,112.8H100.8V115.2H98.4zM100.8,112.8H103.2V115.2H100.8zM103.2,112.8H105.6V115.2H103.2zM108,112.8H110.4V115.2H108zM112.8,112.8H115.2V115.2H112.8zM115.2,112.8H117.6V115.2H115.2zM120,112.8H122.4V115.2H120zM122.4,112.8H124.8V115.2H122.4zM127.2,112.8H129.6V115.2H127.2zM132,112.8H134.4V115.2H132zM134.4,112.8H136.8V115.2H134.4zM16.8,115.2H19.2V117.6H16.8zM24,115.2H26.4V117.6H24zM31.2,115.2H33.6V117.6H31.2zM38.4,115.2H40.8V117.6H38.4zM40.8,115.2H43.2V117.6H40.8zM43.2,115.2H45.6V117.6H43.2zM57.6,115.2H60V117.6H57.6zM60,115.2H62.4V117.6H60zM64.8,115.2H67.2V117.6H64.8zM67.2,115.2H69.6V117.6H67.2zM69.6,115.2H72V117.6H69.6zM72,115.2H74.4V117.6H72zM74.4,115.2H76.8V117.6H74.4zM76.8,115.2H79.2V117.6H76.8zM81.6,115.2H84V117.6H81.6zM84,115.2H86.4V117.6H84zM88.8,115.2H91.2V117.6H88.8zM93.6,115.2H96V117.6H93.6zM96,115.2H98.4V117.6H96zM98.4,115.2H100.8V117.6H98.4zM100.8,115.2H103.2V117.6H100.8zM103.2,115.2H105.6V117.6H103.2zM108,115.2H110.4V117.6H108zM115.2,115.2H117.6V117.6H115.2zM117.6,115.2H120V117.6H117.6zM120,115.2H122.4V117.6H120zM122.4,115.2H124.8V117.6H122.4zM124.8,115.2H127.2V117.6H124.8zM129.6,115.2H132V117.6H129.6zM134.4,115.2H136.8V117.6H134.4zM28.8,117.6H31.2V120H28.8zM31.2,117.6H33.6V120H31.2zM43.2,117.6H45.6V120H43.2zM45.6,117.6H48V120H45.6zM48,117.6H50.4V120H48zM50.4,117.6H52.8V120H50.4zM52.8,117.6H55.2V120H52.8zM55.2,117.6H57.6V120H55.2zM60,117.6H62.4V120H60zM62.4,117.6H64.8V120H62.4zM64.8,117.6H67.2V120H64.8zM67.2,117.6H69.6V120H67.2zM76.8,117.6H79.2V120H76.8zM81.6,117.6H84V120H81.6zM84,117.6H86.4V120H84zM98.4,117.6H100.8V120H98.4zM100.8,117.6H103.2V120H100.8zM103.2,117.6H105.6V120H103.2zM105.6,117.6H108V120H105.6zM108,117.6H110.4V120H108zM110.4,117.6H112.8V120H110.4zM115.2,117.6H117.6V120H115.2zM124.8,117.6H127.2V120H124.8zM127.2,117.6H129.6V120H127.2zM9.6,120H12V122.4H9.6zM12,120H14.4V122.4H12zM14.4,120H16.8V122.4H14.4zM16.8,120H19.2V122.4H16.8zM19.2,120H21.6V122.4H19.2zM21.6,120H24V122.4H21.6zM24,120H26.4V122.4H24zM38.4,120H40.8V122.4H38.4zM40.8,120H43.2V122.4H40.8zM45.6,120H48V122.4H45.6zM48,120H50.4V122.4H48zM50.4,120H52.8V122.4H50.4zM52.8,120H55.2V122.4H52.8zM60,120H62.4V122.4H60zM62.4,120H64.8V122.4H62.4zM67.2,120H69.6V122.4H67.2zM72,120H74.4V122.4H72zM76.8,120H79.2V122.4H76.8zM79.2,120H81.6V122.4H79.2zM91.2,120H93.6V122.4H91.2zM96,120H98.4V122.4H96zM98.4,120H100.8V122.4H98.4zM100.8,120H103.2V122.4H100.8zM103.2,120H105.6V122.4H103.2zM108,120H110.4V122.4H108zM115.2,120H117.6V122.4H115.2zM120,120H122.4V122.4H120zM124.8,120H127.2V122.4H124.8zM127.2,120H129.6V122.4H127.2zM129.6,120H132V122.4H129.6zM9.6,122.4H12V124.8H9.6zM24,122.4H26.4V124.8H24zM28.8,122.4H31.2V124.8H28.8zM31.2,122.4H33.6V124.8H31.2zM33.6,122.4H36V124.8H33.6zM36,122.4H38.4V124.8H36zM38.4,122.4H40.8V124.8H38.4zM48,122.4H50.4V124.8H48zM52.8,122.4H55.2V124.8H52.8zM62.4,122.4H64.8V124.8H62.4zM67.2,122.4H69.6V124.8H67.2zM76.8,122.4H79.2V124.8H76.8zM81.6,122.4H84V124.8H81.6zM84,122.4H86.4V124.8H84zM88.8,122.4H91.2V124.8H88.8zM91.2,122.4H93.6V124.8H91.2zM98.4,122.4H100.8V124.8H98.4zM105.6,122.4H108V124.8H105.6zM110.4,122.4H112.8V124.8H110.4zM115.2,122.4H117.6V124.8H115.2zM124.8,122.4H127.2V124.8H124.8zM127.2,122.4H129.6V124.8H127.2zM132,122.4H134.4V124.8H132zM134.4,122.4H136.8V124.8H134.4zM9.6,124.8H12V127.2H9.6zM14.4,124.8H16.8V127.2H14.4zM16.8,124.8H19.2V127.2H16.8zM19.2,124.8H21.6V127.2H19.2zM24,124.8H26.4V127.2H24zM33.6,124.8H36V127.2H33.6zM38.4,124.8H40.8V127.2H38.4zM40.8,124.8H43.2V127.2H40.8zM45.6,124.8H48V127.2H45.6zM48,124.8H50.4V127.2H48zM50.4,124.8H52.8V127.2H50.4zM52.8,124.8H55.2V127.2H52.8zM55.2,124.8H57.6V127.2H55.2zM64.8,124.8H67.2V127.2H64.8zM67.2,124.8H69.6V127.2H67.2zM69.6,124.8H72V127.2H69.6zM72,124.8H74.4V127.2H72zM74.4,124.8H76.8V127.2H74.4zM76.8,124.8H79.2V127.2H76.8zM79.2,124.8H81.6V127.2H79.2zM81.6,124.8H84V127.2H81.6zM96,124.8H98.4V127.2H96zM100.8,124.8H103.2V127.2H100.8zM103.2,124.8H105.6V127.2H103.2zM105.6,124.8H108V127.2H105.6zM112.8,124.8H115.2V127.2H112.8zM115.2,124.8H117.6V127.2H115.2zM117.6,124.8H120V127.2H117.6zM120,124.8H122.4V127.2H120zM122.4,124.8H124.8V127.2H122.4zM124.8,124.8H127.2V127.2H124.8zM127.2,124.8H129.6V127.2H127.2zM132,124.8H134.4V127.2H132zM134.4,124.8H136.8V127.2H134.4zM9.6,127.2H12V129.6H9.6zM14.4,127.2H16.8V129.6H14.4zM16.8,127.2H19.2V129.6H16.8zM19.2,127.2H21.6V129.6H19.2zM24,127.2H26.4V129.6H24zM31.2,127.2H33.6V129.6H31.2zM33.6,127.2H36V129.6H33.6zM36,127.2H38.4V129.6H36zM38.4,127.2H40.8V129.6H38.4zM48,127.2H50.4V129.6H48zM50.4,127.2H52.8V129.6H50.4zM60,127.2H62.4V129.6H60zM62.4,127.2H64.8V129.6H62.4zM64.8,127.2H67.2V129.6H64.8zM67.2,127.2H69.6V129.6H67.2zM69.6,127.2H72V129.6H69.6zM74.4,127.2H76.8V129.6H74.4zM76.8,127.2H79.2V129.6H76.8zM79.2,127.2H81.6V129.6H79.2zM84,127.2H86.4V129.6H84zM86.4,127.2H88.8V129.6H86.4zM93.6,127.2H96V129.6H93.6zM96,127.2H98.4V129.6H96zM98.4,127.2H100.8V129.6H98.4zM108,127.2H110.4V129.6H108zM110.4,127.2H112.8V129.6H110.4zM120,127.2H122.4V129.6H120zM122.4,127.2H124.8V129.6H122.4zM127.2,127.2H129.6V129.6H127.2zM129.6,127.2H132V129.6H129.6zM132,127.2H134.4V129.6H132zM9.6,129.6H12V132H9.6zM14.4,129.6H16.8V132H14.4zM16.8,129.6H19.2V132H16.8zM19.2,129.6H21.6V132H19.2zM24,129.6H26.4V132H24zM31.2,129.6H33.6V132H31.2zM33.6,129.6H36V132H33.6zM36,129.6H38.4V132H36zM40.8,129.6H43.2V132H40.8zM43.2,129.6H45.6V132H43.2zM45.6,129.6H48V132H45.6zM55.2,129.6H57.6V132H55.2zM62.4,129.6H64.8V132H62.4zM64.8,129.6H67.2V132H64.8zM69.6,129.6H72V132H69.6zM72,129.6H74.4V132H72zM74.4,129.6H76.8V132H74.4zM76.8,129.6H79.2V132H76.8zM81.6,129.6H84V132H81.6zM84,129.6H86.4V132H84zM88.8,129.6H91.2V132H88.8zM91.2,129.6H93.6V132H91.2zM96,129.6H98.4V132H96zM100.8,129.6H103.2V132H100.8zM108,129.6H110.4V132H108zM112.8,129.6H115.2V132H112.8zM115.2,129.6H117.6V132H115.2zM117.6,129.6H120V132H117.6zM122.4,129.6H124.8V132H122.4zM124.8,129.6H127.2V132H124.8zM127.2,129.6H129.6V132H127.2zM9.6,132H12V134.4H9.6zM24,132H26.4V134.4H24zM33.6,132H36V134.4H33.6zM36,132H38.4V134.4H36zM40.8,132H43.2V134.4H40.8zM43.2,132H45.6V134.4H43.2zM45.6,132H48V134.4H45.6zM52.8,132H55.2V134.4H52.8zM57.6,132H60V134.4H57.6zM60,132H62.4V134.4H60zM62.4,132H64.8V134.4H62.4zM64.8,132H67.2V134.4H64.8zM67.2,132H69.6V134.4H67.2zM69.6,132H72V134.4H69.6zM74.4,132H76.8V134.4H74.4zM81.6,132H84V134.4H81.6zM84,132H86.4V134.4H84zM91.2,132H93.6V134.4H91.2zM96,132H98.4V134.4H96zM98.4,132H100.8V134.4H98.4zM103.2,132H105.6V134.4H103.2zM108,132H110.4V134.4H108zM120,132H122.4V134.4H120zM122.4,132H124.8V134.4H122.4zM124.8,132H127.2V134.4H124.8zM127.2,132H129.6V134.4H127.2zM129.6,132H132V134.4H129.6zM134.4,132H136.8V134.4H134.4zM9.6,134.4H12V136.8H9.6zM12,134.4H14.4V136.8H12zM14.4,134.4H16.8V136.8H14.4zM16.8,134.4H19.2V136.8H16.8zM19.2,134.4H21.6V136.8H19.2zM21.6,134.4H24V136.8H21.6zM24,134.4H26.4V136.8H24zM31.2,134.4H33.6V136.8H31.2zM33.6,134.4H36V136.8H33.6zM36,134.4H38.4V136.8H36zM38.4,134.4H40.8V136.8H38.4zM45.6,134.4H48V136.8H45.6zM52.8,134.4H55.2V136.8H52.8zM55.2,134.4H57.6V136.8H55.2zM57.6,134.4H60V136.8H57.6zM62.4,134.4H64.8V136.8H62.4zM64.8,134.4H67.2V136.8H64.8zM67.2,134.4H69.6V136.8H67.2zM69.6,134.4H72V136.8H69.6zM72,134.4H74.4V136.8H72zM74.4,134.4H76.8V136.8H74.4zM76.8,134.4H79.2V136.8H76.8zM79.2,134.4H81.6V136.8H79.2zM81.6,134.4H84V136.8H81.6zM88.8,134.4H91.2V136.8H88.8zM91.2,134.4H93.6V136.8H91.2zM93.6,134.4H96V136.8H93.6zM100.8,134.4H103.2V136.8H100.8zM108,134.4H110.4V136.8H108zM112.8,134.4H115.2V136.8H112.8zM115.2,134.4H117.6V136.8H115.2zM117.6,134.4H120V136.8H117.6zM120,134.4H122.4V136.8H120zM129.6,134.4H132V136.8H129.6z" id="qr-path" fill="#000000" fill-opacity="1" fill-rule="nonzero" stroke="none"/></svg>